<?xml version="1.0" encoding="UTF-8"?>
<svg style="background:#F6F7F8" xmlns="http://www.w3.org/2000/svg" height="320" width="1005.4292579505302" viewBox="0 0 502.7 160" role="img" aria-label="puls3 Halftone p v2 lockup in Unbounded"><defs><style>@import url('https://fonts.googleapis.com/css2?family=Unbounded:wght@500&amp;family=Michroma&amp;family=Sora:wght@600&amp;display=swap');</style></defs><g transform="translate(16 16)"><g><circle cx="26.00" cy="22.00" r="5.20" fill="#0B0B0D"></circle><circle cx="26.00" cy="34.00" r="5.01" fill="#0B0B0D"></circle><circle cx="26.00" cy="46.00" r="4.81" fill="#0B0B0D"></circle><circle cx="26.00" cy="58.00" r="4.61" fill="#0B0B0D"></circle><circle cx="26.00" cy="70.00" r="4.42" fill="#0B0B0D"></circle><circle cx="26.00" cy="82.00" r="4.22" fill="#0B0B0D"></circle><circle cx="26.00" cy="94.00" r="4.03" fill="#0B0B0D"></circle><circle cx="26.00" cy="106.00" r="3.83" fill="#0B0B0D"></circle><circle cx="26.00" cy="118.00" r="3.63" fill="#0B0B0D"></circle><circle cx="38.00" cy="22.00" r="5.20" fill="#0B0B0D"></circle><circle cx="38.00" cy="34.00" r="5.01" fill="#0B0B0D"></circle><circle cx="38.00" cy="46.00" r="4.81" fill="#0B0B0D"></circle><circle cx="38.00" cy="58.00" r="4.61" fill="#0B0B0D"></circle><circle cx="38.00" cy="70.00" r="4.42" fill="#0B0B0D"></circle><circle cx="38.00" cy="82.00" r="4.22" fill="#0B0B0D"></circle><circle cx="38.00" cy="94.00" r="4.03" fill="#0B0B0D"></circle><circle cx="38.00" cy="106.00" r="3.83" fill="#0B0B0D"></circle><circle cx="38.00" cy="118.00" r="3.63" fill="#0B0B0D"></circle><circle cx="74.00" cy="28.00" r="5.10" fill="#0B0B0D"></circle><circle cx="86.00" cy="31.22" r="5.05" fill="#0B0B0D"></circle><circle cx="94.78" cy="40.00" r="4.91" fill="#0B0B0D"></circle><circle cx="98.00" cy="52.00" r="4.71" fill="#0B0B0D"></circle><circle cx="94.78" cy="64.00" r="4.52" fill="#0B0B0D"></circle><circle cx="86.00" cy="72.78" r="4.37" fill="#0B0B0D"></circle><circle cx="74.00" cy="76.00" r="4.32" fill="#0B0B0D"></circle><circle cx="62.00" cy="72.78" r="4.37" fill="#0B0B0D"></circle><circle cx="53.22" cy="64.00" r="4.52" fill="#0B0B0D"></circle><circle cx="50.00" cy="52.00" r="4.71" fill="#0B0B0D"></circle><circle cx="53.22" cy="40.00" r="4.91" fill="#0B0B0D"></circle><circle cx="62.00" cy="31.22" r="5.05" fill="#0B0B0D"></circle><circle cx="74.00" cy="16.00" r="5.30" fill="#0B0B0D"></circle><circle cx="86.31" cy="18.17" r="5.26" fill="#0B0B0D"></circle><circle cx="97.14" cy="24.42" r="5.16" fill="#0B0B0D"></circle><circle cx="105.18" cy="34.00" r="5.01" fill="#0B0B0D"></circle><circle cx="109.45" cy="45.75" r="4.81" fill="#0B0B0D"></circle><circle cx="109.45" cy="58.25" r="4.61" fill="#0B0B0D"></circle><circle cx="105.18" cy="70.00" r="4.42" fill="#0B0B0D"></circle><circle cx="97.14" cy="79.58" r="4.26" fill="#0B0B0D"></circle><circle cx="86.31" cy="85.83" r="4.16" fill="#0B0B0D"></circle><circle cx="74.00" cy="88.00" r="4.12" fill="#0B0B0D"></circle><circle cx="61.69" cy="85.83" r="4.16" fill="#0B0B0D"></circle><circle cx="50.86" cy="79.58" r="4.26" fill="#0B0B0D"></circle><circle cx="50.86" cy="24.42" r="5.16" fill="#0B0B0D"></circle><circle cx="61.69" cy="18.17" r="5.26" fill="#0B0B0D"></circle><circle cx="74" cy="52" r="10" fill="#D98A12"></circle></g></g><g opacity="1"><text x="178" y="106" font-family="&#x27;Unbounded&#x27;, &#x27;Helvetica Neue&#x27;, Arial, sans-serif" font-weight="500" font-size="91.87279151943464" letter-spacing="-0.9187279151943465" fill="#0B0B0D">puls<tspan fill="#D98A12">3</tspan></text></g></svg>
