<?xml version="1.0" encoding="UTF-8"?>
<svg style="background:#F6F7F8" xmlns="http://www.w3.org/2000/svg" width="64" height="64" viewBox="0 0 128 128" role="img" aria-label="puls3 p Planet mark (small)"><g><path d="M 30 22 L 30 118" stroke="#0B0B0D" stroke-width="14" stroke-linecap="round" fill="none" pathLength="1"></path><g><circle cx="69.00" cy="54.00" r="3.95" fill="#D98A12" opacity="1"></circle><circle cx="78.53" cy="59.50" r="2.69" fill="#6E5DD3" opacity="1"></circle><circle cx="69.00" cy="65.00" r="3.26" fill="#6E5DD3" opacity="1"></circle><circle cx="59.47" cy="59.50" r="4.33" fill="#D98A12" opacity="1"></circle><circle cx="59.47" cy="48.50" r="4.84" fill="#D98A12" opacity="1"></circle><circle cx="69.00" cy="43.00" r="4.33" fill="#D98A12" opacity="1"></circle><circle cx="78.53" cy="48.50" r="3.26" fill="#6E5DD3" opacity="1"></circle><circle cx="91.00" cy="54.00" r="1.80" fill="#6E5DD3" opacity="0.55"></circle><circle cx="88.48" cy="64.22" r="1.80" fill="#6E5DD3" opacity="0.55"></circle><circle cx="81.50" cy="72.11" r="1.80" fill="#6E5DD3" opacity="0.55"></circle><circle cx="71.65" cy="75.84" r="1.84" fill="#6E5DD3" opacity="1"></circle><circle cx="61.20" cy="74.57" r="2.91" fill="#6E5DD3" opacity="1"></circle><circle cx="52.53" cy="68.59" r="3.96" fill="#D98A12" opacity="1"></circle><circle cx="47.64" cy="59.26" r="4.80" fill="#D98A12" opacity="1"></circle><circle cx="47.64" cy="48.74" r="5.28" fill="#D98A12" opacity="1"></circle><circle cx="52.53" cy="39.41" r="5.32" fill="#D98A12" opacity="1"></circle><circle cx="61.20" cy="33.43" r="4.91" fill="#D98A12" opacity="1"></circle><circle cx="71.65" cy="32.16" r="4.12" fill="#D98A12" opacity="1"></circle><circle cx="81.50" cy="35.89" r="3.10" fill="#6E5DD3" opacity="1"></circle><circle cx="88.48" cy="43.78" r="2.02" fill="#6E5DD3" opacity="1"></circle></g><g><path d="M 53.95 12.65 A 44 44 0 0 1 112.33 61.64" fill="none" stroke="#6E5DD3" stroke-width="5" stroke-linecap="round"></path><circle cx="112.33" cy="61.64" r="7" fill="#D98A12"></circle></g></g></svg>
