<?xml version="1.0" encoding="UTF-8"?>
<svg style="background:#0B0B0D" xmlns="http://www.w3.org/2000/svg" width="512" height="512" viewBox="0 0 128 128" role="img" aria-label="puls3 Wave Wordmark mark"><g><polyline points="14.00,70.00 15.38,66.57 16.75,63.20 18.13,59.92 19.50,56.80 20.88,53.88 22.25,51.20 23.63,48.80 25.00,46.72 26.38,44.99 27.75,43.64 29.13,42.68 30.50,42.13 31.88,42.01 33.25,42.30 34.63,43.01 36.00,44.13 37.38,45.64 38.75,47.51 40.13,49.72 41.50,52.24 42.88,55.02 44.25,58.03 45.63,61.22 47.00,64.54 48.38,67.94 49.75,71.37 51.13,74.79 52.50,78.13 53.88,81.35 55.25,84.39 56.63,87.23 58.00,89.80 59.38,92.07 60.75,94.02 62.13,95.60 63.50,96.79 64.88,97.59 66.25,97.97 67.63,97.92 69.00,97.46 70.38,96.59 71.75,95.31 73.13,93.66 74.50,91.64 75.88,89.31 77.25,86.68 78.63,83.80 80.00,80.72 81.38,77.47 82.75,74.11 84.13,70.69 85.50,67.26 86.88,63.87 88.25,60.57 89.63,57.41 91.00,54.44 92.38,51.71 93.75,49.25 95.13,47.11 96.50,45.31 97.88,43.88 99.25,42.84 100.63,42.21 102.00,42.00" fill="none" stroke="#FFB547" stroke-width="9" stroke-linecap="round" stroke-linejoin="round"></polyline><circle cx="102.00" cy="42.00" r="10" fill="#A99CF2"></circle></g></svg>
